<svg width="42" height="42" xmlns="http://www.w3.org/2000/svg" xmlns:xlink="http://www.w3.org/1999/xlink" overflow="hidden"><defs><clipPath id="clip0"><rect x="390" y="575" width="42" height="42"/></clipPath></defs><g clip-path="url(#clip0)" transform="translate(-390 -575)"><path d="M411 594.25C408.812 594.25 407.062 592.5 407.062 590.312 407.062 588.125 408.812 586.375 411 586.375 413.188 586.375 414.938 588.125 414.938 590.312 414.938 592.5 413.188 594.25 411 594.25ZM411 581.125C407.981 581.125 405.138 582.612 403.431 585.15 401.725 587.644 401.375 590.838 402.469 593.681L406.625 602.869 410.212 610.394C410.344 610.7 410.65 610.875 411 610.875 411.35 610.875 411.656 610.7 411.788 610.394L415.375 602.869 419.531 593.681C420.625 590.838 420.275 587.644 418.569 585.15 416.862 582.612 414.019 581.125 411 581.125Z" fill="#FFFFFF"/></g></svg>